{"title":"J_Fallon_Gail_Simmons_720p_20110207_TTL","uid":6162392,"size":107586908,"categoryP":"video","categoryS":"hd___tv_shows","magnet":"?xt=urn:btih:ed93db00dc8d6b782fb7bfbecd817c2659a09b6d&amp;dn=J_Fallon_Gail_Simmons_720p_20110207_TTL&amp;tr=udp%3A%2F%2Ftracker.openbittorrent.com%3A80&amp;tr=udp%3A%2F%2Fopen.demonii.com%3A1337&amp;tr=udp%3A%2F%2Ftracker.coppersurfer.tk%3A6969&amp;tr=udp%3A%2F%2Fexodus.desync.com%3A6969","seeders":0,"leechers":1,"uploader":"thetorrentlord","files":2,"time":1297260084,"description":"J_Fallon_Gail_Simmons_720p_20110207_TTL.avi\nFormat                           : AVI\nFormat/Info                      : Audio Video Interleave\nFile size                        : 103 MiB\nDuration                         : 6mn 14s\nOverall bit rate                 : 2 300 Kbps\n\nVideo\nID                               : 0\nFormat                           : MPEG-4 Visual\nFormat profile                   : Advanced Simple@L5\nFormat settings, BVOP            : Yes\nFormat settings, QPel            : No\nFormat settings, GMC             : No warppoints\nFormat settings, Matrix          : Default (H.263)\nCodec ID                         : XVID\nCodec ID/Hint                    : XviD\nDuration                         : 6mn 14s\nBit rate                         : 2 176 Kbps\nWidth                            : 1 280 pixels\nHeight                           : 720 pixels\nDisplay aspect ratio             : 16:9\nFrame rate                       : 29.970 fps\nColor space                      : YUV\nChroma subsampling               : 4:2:0\nBit depth                        : 8 bits\nScan type                        : Progressive\nBits/(Pixel*Frame)               : 0.079\nStream size                      : 97.1 MiB (95%)\nWriting library                  : XviD 1.2.0.dev47 (UTC 2006-11-01)\n\nAudio\nID                               : 1\nFormat                           : MPEG Audio\nFormat version                   : Version 1\nFormat profile                   : Layer 2\nCodec ID                         : 50\nDuration                         : 6mn 14s\nBit rate mode                    : Constant\nBit rate                         : 112 Kbps\nChannel(s)                       : 2 channels\nSampling rate                    : 48.0 KHz\nBit depth                        : 16 bits\nStream size                      : 4.99 MiB (5%)\nAlignment                        : Aligned on interleaves\nInterleave, duration             : 33 ms (1.00 video frame)\n\n","torrent":{"xt":"urn:btih:ed93db00dc8d6b782fb7bfbecd817c2659a09b6d","amp;dn":"J_Fallon_Gail_Simmons_720p_20110207_TTL","amp;tr":["udp%3A%2F%2Ftracker.openbittorrent.com%3A80","udp%3A%2F%2Fopen.demonii.com%3A1337","udp%3A%2F%2Ftracker.coppersurfer.tk%3A6969","udp%3A%2F%2Fexodus.desync.com%3A6969"],"infoHash":"ed93db00dc8d6b782fb7bfbecd817c2659a09b6d","infoHashBuffer":{"type":"Buffer","data":[237,147,219,0,220,141,107,120,47,183,191,190,205,129,124,38,89,160,155,109]},"announce":[],"urlList":[]}}